<mxfile host="app.diagrams.net" agent="Mozilla/5.0 (Windows NT 10.0; Win64; x64) AppleWebKit/537.36 (KHTML, like Gecko) Chrome/133.0.0.0 Safari/537.36" version="26.0.14">
  <diagram name="Страница — 1" id="0v4njpWvZapU3_PunO_U">
    <mxGraphModel dx="1728" dy="915" grid="1" gridSize="10" guides="1" tooltips="1" connect="1" arrows="1" fold="1" page="1" pageScale="1" pageWidth="827" pageHeight="1169" math="0" shadow="0">
      <root>
        <mxCell id="0" />
        <mxCell id="1" parent="0" />
        <mxCell id="EHqorV340Nmj9FqR5h-e-4" style="edgeStyle=orthogonalEdgeStyle;rounded=0;orthogonalLoop=1;jettySize=auto;html=1;entryX=0.5;entryY=1;entryDx=0;entryDy=0;" edge="1" parent="1" source="EHqorV340Nmj9FqR5h-e-1" target="EHqorV340Nmj9FqR5h-e-3">
          <mxGeometry relative="1" as="geometry" />
        </mxCell>
        <mxCell id="EHqorV340Nmj9FqR5h-e-1" value="Покупатель" style="shape=umlActor;verticalLabelPosition=bottom;verticalAlign=top;html=1;outlineConnect=0;" vertex="1" parent="1">
          <mxGeometry x="140" y="420" width="30" height="60" as="geometry" />
        </mxCell>
        <mxCell id="EHqorV340Nmj9FqR5h-e-6" style="edgeStyle=orthogonalEdgeStyle;rounded=0;orthogonalLoop=1;jettySize=auto;html=1;entryX=0.5;entryY=1;entryDx=0;entryDy=0;dashed=1;" edge="1" parent="1" source="EHqorV340Nmj9FqR5h-e-3" target="EHqorV340Nmj9FqR5h-e-5">
          <mxGeometry relative="1" as="geometry" />
        </mxCell>
        <mxCell id="EHqorV340Nmj9FqR5h-e-7" value="include" style="edgeLabel;html=1;align=center;verticalAlign=middle;resizable=0;points=[];" vertex="1" connectable="0" parent="EHqorV340Nmj9FqR5h-e-6">
          <mxGeometry x="-0.0833" y="-1" relative="1" as="geometry">
            <mxPoint as="offset" />
          </mxGeometry>
        </mxCell>
        <mxCell id="EHqorV340Nmj9FqR5h-e-9" style="rounded=0;orthogonalLoop=1;jettySize=auto;html=1;entryX=0.5;entryY=1;entryDx=0;entryDy=0;dashed=1;" edge="1" parent="1" source="EHqorV340Nmj9FqR5h-e-3" target="EHqorV340Nmj9FqR5h-e-8">
          <mxGeometry relative="1" as="geometry" />
        </mxCell>
        <mxCell id="EHqorV340Nmj9FqR5h-e-10" value="include" style="edgeLabel;html=1;align=center;verticalAlign=middle;resizable=0;points=[];" vertex="1" connectable="0" parent="EHqorV340Nmj9FqR5h-e-9">
          <mxGeometry x="-0.0165" relative="1" as="geometry">
            <mxPoint as="offset" />
          </mxGeometry>
        </mxCell>
        <mxCell id="EHqorV340Nmj9FqR5h-e-3" value="Зарегистрироваться в системе" style="ellipse;whiteSpace=wrap;html=1;" vertex="1" parent="1">
          <mxGeometry x="95" y="300" width="120" height="70" as="geometry" />
        </mxCell>
        <mxCell id="EHqorV340Nmj9FqR5h-e-5" value="Внести&amp;nbsp;&lt;div&gt;свои данные&lt;/div&gt;" style="ellipse;whiteSpace=wrap;html=1;" vertex="1" parent="1">
          <mxGeometry x="95" y="180" width="120" height="80" as="geometry" />
        </mxCell>
        <mxCell id="EHqorV340Nmj9FqR5h-e-8" value="Подтвердить свои данные" style="ellipse;whiteSpace=wrap;html=1;" vertex="1" parent="1">
          <mxGeometry x="260" y="180" width="120" height="80" as="geometry" />
        </mxCell>
        <mxCell id="EHqorV340Nmj9FqR5h-e-16" style="rounded=0;orthogonalLoop=1;jettySize=auto;html=1;dashed=1;" edge="1" parent="1" source="EHqorV340Nmj9FqR5h-e-11" target="EHqorV340Nmj9FqR5h-e-13">
          <mxGeometry relative="1" as="geometry" />
        </mxCell>
        <mxCell id="EHqorV340Nmj9FqR5h-e-19" value="include" style="edgeLabel;html=1;align=center;verticalAlign=middle;resizable=0;points=[];" vertex="1" connectable="0" parent="EHqorV340Nmj9FqR5h-e-16">
          <mxGeometry x="-0.1535" y="2" relative="1" as="geometry">
            <mxPoint as="offset" />
          </mxGeometry>
        </mxCell>
        <mxCell id="EHqorV340Nmj9FqR5h-e-17" style="rounded=0;orthogonalLoop=1;jettySize=auto;html=1;dashed=1;" edge="1" parent="1" source="EHqorV340Nmj9FqR5h-e-11" target="EHqorV340Nmj9FqR5h-e-12">
          <mxGeometry relative="1" as="geometry" />
        </mxCell>
        <mxCell id="EHqorV340Nmj9FqR5h-e-18" value="include" style="edgeLabel;html=1;align=center;verticalAlign=middle;resizable=0;points=[];" vertex="1" connectable="0" parent="EHqorV340Nmj9FqR5h-e-17">
          <mxGeometry x="-0.0637" y="-4" relative="1" as="geometry">
            <mxPoint as="offset" />
          </mxGeometry>
        </mxCell>
        <mxCell id="EHqorV340Nmj9FqR5h-e-11" value="Покупка товара" style="ellipse;whiteSpace=wrap;html=1;" vertex="1" parent="1">
          <mxGeometry x="250" y="410" width="110" height="60" as="geometry" />
        </mxCell>
        <mxCell id="EHqorV340Nmj9FqR5h-e-12" value="Выбор товара" style="ellipse;whiteSpace=wrap;html=1;" vertex="1" parent="1">
          <mxGeometry x="400" y="340" width="120" height="80" as="geometry" />
        </mxCell>
        <mxCell id="EHqorV340Nmj9FqR5h-e-13" value="Оплата товара" style="ellipse;whiteSpace=wrap;html=1;" vertex="1" parent="1">
          <mxGeometry x="400" y="460" width="120" height="80" as="geometry" />
        </mxCell>
      </root>
    </mxGraphModel>
  </diagram>
</mxfile>
